<svg xmlns="http://www.w3.org/2000/svg" viewBox="0 0 32 32">
  <!-- Squircle background -->
  <path d="M0,16 C0,7.2,0,2.8,2.8,0 C7.2,0,7.2,0,16,0 C24.8,0,29.2,0,32,2.8 C32,7.2,32,7.2,32,16 C32,24.8,32,29.2,29.2,32 C24.8,32,24.8,32,16,32 C7.2,32,2.8,32,0,29.2 C0,24.8,0,24.8,0,16 Z" fill="#000000"/>
  
  <!-- Coins icon (scaled and centered) -->
  <g transform="translate(4, 4) scale(1)">
    <!-- First coin circle -->
    <circle cx="8" cy="8" r="6" fill="none" stroke="#ffffff" stroke-width="1.5" stroke-linecap="round" stroke-linejoin="round"/>
    
    <!-- Second coin circle -->
    <path d="M18.09 10.37A6 6 0 1 1 10.34 18" fill="none" stroke="#ffffff" stroke-width="1.5" stroke-linecap="round" stroke-linejoin="round"/>
    
    <!-- Bill/money symbol -->
    <path d="M7 6h1v4" fill="none" stroke="#ffffff" stroke-width="1.5" stroke-linecap="round" stroke-linejoin="round"/>
    
    <!-- Split indicator -->
    <path d="m16.71 13.88.7.71-2.82 2.82" fill="none" stroke="#ffffff" stroke-width="1.5" stroke-linecap="round" stroke-linejoin="round"/>
  </g>
</svg>
